<?xml version="1.0" encoding="UTF-8" standalone="no"?>
<!-- Created with Inkscape (http://www.inkscape.org/) -->

<svg
   version="1.1"
   id="svg2"
   width="774.5733"
   height="99.199997"
   viewBox="0 0 774.5733 99.199997"
   sodipodi:docname="Logo-ICS-blancv.eps"
   xmlns:inkscape="http://www.inkscape.org/namespaces/inkscape"
   xmlns:sodipodi="http://sodipodi.sourceforge.net/DTD/sodipodi-0.dtd"
   xmlns="http://www.w3.org/2000/svg"
   xmlns:svg="http://www.w3.org/2000/svg">
  <defs
     id="defs6" />
  <sodipodi:namedview
     id="namedview4"
     pagecolor="#ffffff"
     bordercolor="#000000"
     borderopacity="0.25"
     inkscape:showpageshadow="2"
     inkscape:pageopacity="0.0"
     inkscape:pagecheckerboard="0"
     inkscape:deskcolor="#d1d1d1" />
  <g
     id="g8"
     inkscape:groupmode="layer"
     inkscape:label="ink_ext_XXXXXX"
     transform="matrix(1.3333333,0,0,-1.3333333,0,99.2)">
    <g
       id="g10"
       transform="scale(0.1)">
      <path
         d="m 3454.26,435.48 v 291.922 h 34.44 V 435.48 h -34.44"
         style="fill:#ffffff;fill-opacity:1;fill-rule:nonzero;stroke:none"
         id="path12" />
      <path
         d="m 3692.47,632.695 c 13.11,-12.851 19.67,-30.886 19.67,-54.121 V 435.48 h -32.8 v 139.813 c 0,31.437 -16.12,47.148 -48.38,47.148 -15.31,0 -28.84,-5.742 -40.59,-17.214 -11.75,-11.489 -17.63,-28.157 -17.63,-50.024 V 435.48 h -32.8 v 211.563 h 31.16 v -31.574 c 16.13,24.328 38.27,36.496 66.42,36.496 23.51,0 41.82,-6.426 54.95,-19.27"
         style="fill:#ffffff;fill-opacity:1;fill-rule:nonzero;stroke:none"
         id="path14" />
      <path
         d="m 3746.17,502.727 h 33.21 c 1.91,-15.864 7.17,-27.129 15.79,-33.829 8.6,-6.703 22.2,-10.05 40.79,-10.05 33.89,0 50.84,10.937 50.84,32.804 0,9.571 -3.48,16.805 -10.46,21.727 -6.96,4.922 -19.61,9.16 -37.92,12.715 l -19.68,3.691 c -44.01,8.195 -66.01,28.977 -66.01,62.317 0,18.32 6.9,32.871 20.7,43.671 13.81,10.79 32.6,16.192 56.38,16.192 56.03,0 84.73,-23.371 86.1,-70.11 h -32.8 c -0.82,15.301 -5.47,26.106 -13.94,32.383 -8.47,6.289 -21.59,9.434 -39.36,9.434 -14.21,0 -25.15,-2.734 -32.8,-8.203 -7.65,-5.457 -11.48,-13.114 -11.48,-22.957 0,-9.289 3.28,-16.262 9.84,-20.91 6.56,-4.649 17.49,-8.614 32.8,-11.883 l 18.86,-3.692 c 25.97,-5.199 44.62,-12.582 55.96,-22.14 11.35,-9.571 17.02,-22.969 17.02,-40.188 0,-19.949 -7.45,-35.465 -22.34,-46.531 -14.9,-11.074 -35.47,-16.609 -61.71,-16.609 -56.58,0 -86.51,24.058 -89.79,72.168"
         style="fill:#ffffff;fill-opacity:1;fill-rule:nonzero;stroke:none"
         id="path16" />
      <path
         d="m 4041.37,618.34 h -43.46 V 480.996 c 0,-12.031 8.07,-18.047 24.19,-18.047 h 19.27 V 435.48 c -9.02,-0.824 -16.81,-1.234 -23.37,-1.234 -35.26,0 -52.89,14.633 -52.89,43.879 V 618.34 h -34.85 v 28.703 h 34.85 v 59.863 h 32.8 v -59.863 h 43.46 V 618.34"
         style="fill:#ffffff;fill-opacity:1;fill-rule:nonzero;stroke:none"
         id="path18" />
      <path
         d="m 4076.21,435.48 v 211.563 h 32.8 V 435.48 Z m -1.23,243.543 v 40.176 h 34.85 v -40.176 h -34.85"
         style="fill:#ffffff;fill-opacity:1;fill-rule:nonzero;stroke:none"
         id="path20" />
      <path
         d="M 4250.87,618.34 H 4207.4 V 480.996 c 0,-12.031 8.07,-18.047 24.19,-18.047 h 19.28 V 435.48 c -9.02,-0.824 -16.82,-1.234 -23.38,-1.234 -35.25,0 -52.89,14.633 -52.89,43.879 V 618.34 h -34.84 v 28.703 h 34.84 v 59.863 h 32.8 v -59.863 h 43.47 V 618.34"
         style="fill:#ffffff;fill-opacity:1;fill-rule:nonzero;stroke:none"
         id="path22" />
      <path
         d="m 4425.12,647.043 h 32.8 V 435.48 h -31.16 v 31.571 c -16.13,-24.324 -38.27,-36.492 -66.43,-36.492 -23.5,0 -41.81,6.425 -54.94,19.277 -13.11,12.84 -19.68,30.887 -19.68,54.117 v 143.09 h 32.81 V 507.234 c 0,-31.433 16.12,-47.156 48.37,-47.156 15.31,0 28.84,5.742 40.59,17.227 11.76,11.472 17.64,28.156 17.64,50.019 v 119.719"
         style="fill:#ffffff;fill-opacity:1;fill-rule:nonzero;stroke:none"
         id="path24" />
      <path
         d="m 4599.78,618.34 h -43.47 V 480.996 c 0,-12.031 8.07,-18.047 24.19,-18.047 h 19.28 V 435.48 c -9.03,-0.824 -16.82,-1.234 -23.38,-1.234 -35.26,0 -52.89,14.633 -52.89,43.879 V 618.34 h -34.85 v 28.703 h 34.85 v 59.863 h 32.8 v -59.863 h 43.47 V 618.34"
         style="fill:#ffffff;fill-opacity:1;fill-rule:nonzero;stroke:none"
         id="path26" />
      <path
         d="m 4739.98,470.332 c -25.15,27.609 -37.72,64.641 -37.72,111.113 0,46.465 12.57,83.508 37.72,111.106 25.15,27.605 57.54,41.414 97.17,41.414 31.43,0 58.22,-8.543 80.36,-25.625 22.14,-17.078 36.77,-42.031 43.88,-74.824 h -34.86 c -12.3,45.918 -42.09,68.879 -89.38,68.879 -29.8,0 -53.71,-10.665 -71.75,-31.985 -18.04,-21.59 -27.06,-51.25 -27.06,-88.965 0,-37.722 9.02,-67.246 27.06,-88.562 18.04,-21.594 41.95,-32.395 71.75,-32.395 22.41,0 42.37,6.973 59.86,20.918 17.22,13.391 27.75,33.477 31.57,60.266 h 34.45 c -3.83,-36.352 -17.64,-64.094 -41.42,-83.234 -24.05,-19.676 -52.21,-29.512 -84.46,-29.512 -39.63,0 -72.02,13.801 -97.17,41.406"
         style="fill:#ffffff;fill-opacity:1;fill-rule:nonzero;stroke:none"
         id="path28" />
      <path
         d="m 5109.79,474.434 c 13.12,10.382 19.68,25.285 19.68,44.687 v 25.012 c -6.01,-4.649 -15.3,-7.656 -27.88,-9.024 l -30.75,-3.683 c -17.76,-2.188 -30.4,-6.289 -37.92,-12.305 -7.52,-6.016 -11.28,-14.617 -11.28,-25.832 0,-10.934 3.56,-19.469 10.66,-25.625 7.11,-6.148 17.63,-9.226 31.58,-9.226 17.49,0 32.79,5.332 45.91,15.996 z m 75.03,-12.305 V 435.48 c -5.46,-0.824 -11.48,-1.234 -18.03,-1.234 -22.14,0 -34.04,10.117 -35.68,30.344 -14.75,-22.688 -37.72,-34.031 -68.87,-34.031 -23.24,0 -41.49,5.398 -54.74,16.199 -13.26,10.793 -19.88,26.035 -19.88,45.715 0,38.269 26.1,60.136 78.31,65.601 l 30.33,3.274 c 22.15,2.461 33.21,12.168 33.21,29.113 0,11.758 -3.62,20.234 -10.86,25.418 -7.24,5.195 -19.48,7.793 -36.7,7.793 -18.31,0 -31.5,-3.074 -39.57,-9.227 -8.05,-6.144 -12.63,-17.011 -13.73,-32.59 h -32.8 c 2.73,46.739 31.44,70.11 86.1,70.11 53.03,0 79.55,-20.5 79.55,-61.504 V 472.383 c 0,-6.836 3.82,-10.254 11.47,-10.254 h 11.89"
         style="fill:#ffffff;fill-opacity:1;fill-rule:nonzero;stroke:none"
         id="path30" />
      <path
         d="m 5297.99,618.34 h -43.47 V 480.996 c 0,-12.031 8.07,-18.047 24.19,-18.047 h 19.28 V 435.48 c -9.03,-0.824 -16.82,-1.234 -23.38,-1.234 -35.25,0 -52.89,14.633 -52.89,43.879 V 618.34 h -34.84 v 28.703 h 34.84 v 59.863 h 32.8 v -59.863 h 43.47 V 618.34"
         style="fill:#ffffff;fill-opacity:1;fill-rule:nonzero;stroke:none"
         id="path32" />
      <path
         d="m 5440.67,474.434 c 13.12,10.382 19.68,25.285 19.68,44.687 v 25.012 c -6.01,-4.649 -15.3,-7.656 -27.88,-9.024 l -30.75,-3.683 c -17.76,-2.188 -30.4,-6.289 -37.92,-12.305 -7.52,-6.016 -11.28,-14.617 -11.28,-25.832 0,-10.934 3.55,-19.469 10.66,-25.625 7.11,-6.148 17.63,-9.226 31.58,-9.226 17.49,0 32.79,5.332 45.91,15.996 z m 75.03,-12.305 V 435.48 c -5.47,-0.824 -11.48,-1.234 -18.03,-1.234 -22.14,0 -34.04,10.117 -35.68,30.344 -14.75,-22.688 -37.72,-34.031 -68.87,-34.031 -23.24,0 -41.49,5.398 -54.74,16.199 -13.26,10.793 -19.88,26.035 -19.88,45.715 0,38.269 26.1,60.136 78.31,65.601 l 30.33,3.274 c 22.15,2.461 33.21,12.168 33.21,29.113 0,11.758 -3.62,20.234 -10.86,25.418 -7.24,5.195 -19.48,7.793 -36.7,7.793 -18.31,0 -31.5,-3.074 -39.57,-9.227 -8.05,-6.144 -12.63,-17.011 -13.73,-32.59 h -32.8 c 2.73,46.739 31.44,70.11 86.1,70.11 53.03,0 79.54,-20.5 79.54,-61.504 V 472.383 c 0,-6.836 3.83,-10.254 11.48,-10.254 h 11.89"
         style="fill:#ffffff;fill-opacity:1;fill-rule:nonzero;stroke:none"
         id="path34" />
      <path
         d="m 5542.34,435.48 v 291.922 h 32.81 V 435.48 h -32.81"
         style="fill:#ffffff;fill-opacity:1;fill-rule:nonzero;stroke:none"
         id="path36" />
      <path
         d="m 5734.23,474.434 c 13.11,10.382 19.68,25.285 19.68,44.687 v 25.012 c -6.02,-4.649 -15.31,-7.656 -27.88,-9.024 l -30.76,-3.683 c -17.76,-2.188 -30.4,-6.289 -37.92,-12.305 -7.52,-6.016 -11.28,-14.617 -11.28,-25.832 0,-10.934 3.56,-19.469 10.67,-25.625 7.11,-6.148 17.63,-9.226 31.57,-9.226 17.49,0 32.79,5.332 45.92,15.996 z m -12.72,204.589 h -29.11 l -50.43,59.043 h 44.29 z m 87.75,-216.894 V 435.48 c -5.47,-0.824 -11.49,-1.234 -18.04,-1.234 -22.14,0 -34.03,10.117 -35.67,30.344 -14.76,-22.688 -37.73,-34.031 -68.88,-34.031 -23.23,0 -41.48,5.398 -54.74,16.199 -13.26,10.793 -19.88,26.035 -19.88,45.715 0,38.269 26.1,60.136 78.31,65.601 l 30.33,3.274 c 22.15,2.461 33.22,12.168 33.22,29.113 0,11.758 -3.63,20.234 -10.86,25.418 -7.25,5.195 -19.49,7.793 -36.7,7.793 -18.31,0 -31.51,-3.074 -39.57,-9.227 -8.06,-6.144 -12.64,-17.011 -13.73,-32.59 h -32.81 c 2.74,46.739 31.44,70.11 86.11,70.11 53.03,0 79.54,-20.5 79.54,-61.504 V 472.383 c 0,-6.836 3.83,-10.254 11.47,-10.254 h 11.9"
         style="fill:#ffffff;fill-opacity:1;fill-rule:nonzero;stroke:none"
         id="path38" />
      <path
         d="m 3544.46,40.0781 c 20.77,0 37.31,7.2461 49.61,21.7305 12.3,14.2187 18.45,34.0312 18.45,59.4534 0,25.144 -6.15,44.968 -18.45,59.453 -12.3,14.48 -28.84,21.726 -49.61,21.726 -20.5,0 -36.97,-7.453 -49.41,-22.343 -12.43,-14.895 -18.65,-35.059 -18.65,-60.481 0,-25.1443 6.15,-44.6834 18.45,-58.6209 12.3,-13.9453 28.84,-20.918 49.61,-20.918 z m 66.83,267.3239 h 32.8 V 15.4805 h -31.16 v 32.8008 c -16.95,-25.1446 -41.14,-37.7227 -72.57,-37.7227 -29.79,0 -53.58,10.1172 -71.34,30.3398 -18.04,20.2344 -27.06,47.0118 -27.06,80.3636 0,33.894 9.02,60.816 27.06,80.769 17.49,19.953 41.27,29.934 71.34,29.934 30.34,0 53.98,-11.762 70.93,-35.266 v 110.703"
         style="fill:#ffffff;fill-opacity:1;fill-rule:nonzero;stroke:none"
         id="path40" />
      <path
         d="m 3738.39,185.84 c -10.93,-10.801 -17.77,-26.309 -20.5,-46.531 h 124.64 c -1.64,18.582 -7.93,33.679 -18.86,45.3 -10.94,11.614 -25.29,17.422 -43.05,17.422 -17.22,0 -31.3,-5.398 -42.23,-16.191 z m 139.4,-76.055 h -160.72 c 1.64,-22.9608 8.06,-40.2537 19.27,-51.8631 11.2,-11.6211 26.51,-17.4336 45.92,-17.4336 29.24,0 47.97,13.125 56.17,39.3672 h 34.03 c -5.74,-21.3203 -16.4,-38.2032 -31.98,-50.6367 -15.58,-12.4415 -35.26,-18.6602 -59.04,-18.6602 -29.25,0 -52.9,9.9766 -70.93,29.9297 -18.32,19.9609 -27.47,46.8828 -27.47,80.7737 0,33.347 9.02,60.136 27.06,80.359 17.77,20.227 41.27,30.344 70.52,30.344 30.34,0 54.12,-10.527 71.34,-31.574 17.22,-21.043 25.83,-47.422 25.83,-79.129 v -11.477"
         style="fill:#ffffff;fill-opacity:1;fill-rule:nonzero;stroke:none"
         id="path42" />
      <path
         d="M 3994.63,15.4805 V 307.402 h 32.8 V 15.4805 h -32.8"
         style="fill:#ffffff;fill-opacity:1;fill-rule:nonzero;stroke:none"
         id="path44" />
      <path
         d="m 4186.5,54.4336 c 13.12,10.3828 19.68,25.2852 19.68,44.6875 v 25.0119 c -6.01,-4.649 -15.3,-7.656 -27.88,-9.024 l -30.75,-3.683 c -17.76,-2.188 -30.4,-6.289 -37.92,-12.3049 -7.52,-6.0156 -11.28,-14.6172 -11.28,-25.8281 0,-10.9375 3.55,-19.4727 10.66,-25.625 7.11,-6.1524 17.63,-9.2305 31.58,-9.2305 17.49,0 32.79,5.332 45.91,15.9961 z m 75.03,-12.3047 V 15.4805 c -5.47,-0.8242 -11.48,-1.2344 -18.03,-1.2344 -22.14,0 -34.04,10.1172 -35.68,30.3437 -14.75,-22.6875 -37.71,-34.0312 -68.87,-34.0312 -23.24,0 -41.48,5.3984 -54.74,16.1992 -13.25,10.793 -19.88,26.0352 -19.88,45.7149 0,38.2693 26.1,60.1363 78.31,65.6013 l 30.33,3.274 c 22.15,2.461 33.21,12.168 33.21,29.113 0,11.758 -3.62,20.234 -10.86,25.418 -7.24,5.195 -19.48,7.793 -36.7,7.793 -18.31,0 -31.5,-3.074 -39.57,-9.227 -8.05,-6.144 -12.63,-17.011 -13.73,-32.59 h -32.8 c 2.73,46.739 31.44,70.11 86.1,70.11 53.03,0 79.54,-20.5 79.54,-61.504 V 52.3828 c 0,-6.8359 3.83,-10.2539 11.48,-10.2539 h 11.89"
         style="fill:#ffffff;fill-opacity:1;fill-rule:nonzero;stroke:none"
         id="path46" />
      <path
         d="m 4388.21,34.7578 c -21.32,17.2149 -32.11,42.9102 -32.38,77.0782 h 35.66 c 0.82,-47.8438 29.39,-71.7579 85.7,-71.7579 23.78,0 42.02,4.6485 54.73,13.9453 12.71,9.2891 19.07,22.8243 19.07,40.586 0,13.9456 -5.27,24.8046 -15.78,32.5976 -10.53,7.793 -28.91,14.551 -55.15,20.293 l -25.83,5.742 c -29.52,6.836 -51.66,16.738 -66.43,29.727 -14.75,12.976 -22.14,31.23 -22.14,54.734 0,23.235 9.03,41.75 27.06,55.559 18.04,13.801 42.24,20.703 72.57,20.703 20.51,0 38.34,-2.461 53.51,-7.383 15.17,-4.922 26.99,-11.816 35.47,-20.703 8.47,-8.887 14.69,-18.516 18.65,-28.906 3.96,-10.391 6.08,-21.864 6.36,-34.446 h -35.27 c -1.64,20.786 -8.39,36.02 -20.29,45.727 -11.88,9.695 -31.37,14.551 -58.43,14.551 -20.5,0 -36.28,-3.965 -47.35,-11.887 -11.06,-7.93 -16.6,-19.004 -16.6,-33.215 0,-14.219 4.78,-25.281 14.34,-33.211 9.3,-7.929 27.34,-14.89 54.12,-20.906 l 25.83,-5.742 c 32.26,-7.11 55.49,-17.285 69.71,-30.547 14.21,-13.254 21.32,-30.82 21.32,-52.6876 0,-26.5117 -9.71,-47.4219 -29.11,-62.7227 -19.41,-15.3164 -46.19,-22.96092 -80.36,-22.96092 -38,0 -67.66,8.60152 -88.98,25.83202"
         style="fill:#ffffff;fill-opacity:1;fill-rule:nonzero;stroke:none"
         id="path48" />
      <path
         d="m 4733.43,54.4336 c 13.11,10.3828 19.68,25.2852 19.68,44.6875 v 25.0119 c -6.02,-4.649 -15.31,-7.656 -27.89,-9.024 l -30.75,-3.683 c -17.76,-2.188 -30.4,-6.289 -37.92,-12.3049 -7.52,-6.0156 -11.28,-14.6172 -11.28,-25.8281 0,-10.9375 3.56,-19.4727 10.67,-25.625 7.11,-6.1524 17.62,-9.2305 31.57,-9.2305 17.49,0 32.79,5.332 45.92,15.9961 z m 75.03,-12.3047 V 15.4805 c -5.47,-0.8242 -11.49,-1.2344 -18.04,-1.2344 -22.14,0 -34.03,10.1172 -35.67,30.3437 -14.76,-22.6875 -37.73,-34.0312 -68.88,-34.0312 -23.23,0 -41.49,5.3984 -54.74,16.1992 -13.26,10.793 -19.88,26.0352 -19.88,45.7149 0,38.2693 26.1,60.1363 78.31,65.6013 l 30.33,3.274 c 22.15,2.461 33.22,12.168 33.22,29.113 0,11.758 -3.63,20.234 -10.86,25.418 -7.25,5.195 -19.49,7.793 -36.7,7.793 -18.31,0 -31.51,-3.074 -39.57,-9.227 -8.06,-6.144 -12.64,-17.011 -13.73,-32.59 h -32.81 c 2.74,46.739 31.44,70.11 86.11,70.11 53.02,0 79.54,-20.5 79.54,-61.504 V 52.3828 c 0,-6.8359 3.83,-10.2539 11.47,-10.2539 h 11.9"
         style="fill:#ffffff;fill-opacity:1;fill-rule:nonzero;stroke:none"
         id="path50" />
      <path
         d="M 4835.12,15.4805 V 307.402 h 32.8 V 15.4805 h -32.8"
         style="fill:#ffffff;fill-opacity:1;fill-rule:nonzero;stroke:none"
         id="path52" />
      <path
         d="m 5056.52,227.043 h 32.81 V 15.4805 h -31.17 v 31.5703 c -16.13,-24.3242 -38.27,-36.4922 -66.42,-36.4922 -23.51,0 -41.82,6.4258 -54.94,19.2773 -13.12,12.8399 -19.68,30.8868 -19.68,54.1172 V 227.043 h 32.8 V 87.2344 c 0,-31.4336 16.12,-47.1563 48.38,-47.1563 15.3,0 28.84,5.7422 40.59,17.2266 11.75,11.4726 17.63,28.1562 17.63,50.0193 v 119.719"
         style="fill:#ffffff;fill-opacity:1;fill-rule:nonzero;stroke:none"
         id="path54" />
      <path
         d="m 5231.18,198.34 h -43.47 V 60.9961 c 0,-12.0313 8.07,-18.0469 24.19,-18.0469 h 19.28 V 15.4805 c -9.02,-0.8242 -16.81,-1.2344 -23.38,-1.2344 -35.25,0 -52.89,14.6328 -52.89,43.8789 V 198.34 h -34.84 v 28.703 h 34.84 v 59.859 h 32.8 v -59.859 h 43.47 V 198.34"
         style="fill:#ffffff;fill-opacity:1;fill-rule:nonzero;stroke:none"
         id="path56" />
      <path
         d="M 79.0078,63.0078 C 27.0039,105.012 0.667969,167.676 0,251.016 h 87.0078 c 2,-116.668 71.6682,-175.0082 209.0122,-175.0082 58.003,0 102.503,11.336 133.507,34.0042 31.004,22.664 46.504,55.672 46.504,99.004 0,34.004 -12.832,60.507 -38.504,79.504 -25.668,19.003 -70.5,35.503 -134.504,49.507 l -63.007,14 c -72.004,16.668 -126.008,40.832 -162.0082,72.504 -36,31.668 -54.0039,76.172 -54.0039,133.504 0,56.672 22.0039,101.844 66,135.512 44.0041,33.672 103.0081,50.5 177.0121,50.5 50.004,0 93.507,-5.996 130.507,-17.996 37.004,-12.004 65.84,-28.84 86.508,-50.504 20.664,-21.668 35.836,-45.172 45.504,-70.504 9.664,-25.336 14.836,-53.34 15.5,-84.008 h -86.008 c -4,50.668 -20.496,87.844 -49.5,111.508 -29,23.668 -76.504,35.504 -142.511,35.504 -50,0 -88.504,-9.668 -115.508,-29.004 -26.996,-19.336 -40.496,-46.332 -40.496,-81.008 0,-34.668 11.664,-61.668 35,-81 22.664,-19.336 66.668,-36.336 132.008,-51.004 l 63,-14 c 78.671,-17.336 135.343,-42.172 170.015,-74.508 34.668,-32.332 52,-75.168 52,-128.507 0,-64.668 -23.664,-115.6762 -71.004,-153.0082 C 444.695,18.6719 379.359,0 296.02,0 203.352,0 131.012,21.0078 79.0078,63.0078"
         style="fill:#ffffff;fill-opacity:1;fill-rule:nonzero;stroke:none"
         id="path58" />
      <path
         d="m 916.02,111.008 c 32.003,25.34 48,61.668 48,109.012 v 61 c -14.665,-11.332 -37.336,-18.665 -68.004,-22.004 l -75.004,-8.996 c -43.336,-5.332 -74.172,-15.332 -92.504,-30 -18.336,-14.668 -27.5,-35.672 -27.5,-63.008 0,-26.668 8.664,-47.5 26,-62.5003 17.332,-15 43.004,-22.5078 77,-22.5078 42.672,0 80.012,13.0078 112.012,39.0041 z m 183.01,-30.0002 v -65 c -13.34,-2.0039 -28,-3 -44.01,-3 -53.99,0 -83,24.668 -86.997,74.0039 C 932.016,31.6719 876.016,4.00391 800.012,4.00391 743.34,4.00391 698.84,17.168 666.504,43.5078 c -32.34,26.336 -48.508,63.5042 -48.508,111.5042 0,93.34 63.676,146.679 191.02,160.011 l 74.004,8 c 54,6 81,29.672 81,71.004 0,28.668 -8.832,49.336 -26.5,62.004 -17.665,12.668 -47.504,19.004 -89.508,19.004 -44.668,0 -76.836,-7.5 -96.504,-22.5 -19.668,-15.008 -30.832,-41.504 -33.5,-79.508 h -80.004 c 6.664,114.008 76.668,171.012 210.008,171.012 129.343,0 194.018,-50.008 194.018,-150.012 V 106.008 c 0,-16.6603 9.33,-25.0002 28,-25.0002 h 29"
         style="fill:#ffffff;fill-opacity:1;fill-rule:nonzero;stroke:none"
         id="path60" />
      <path
         d="M 1169,16.0078 V 728.051 h 80 V 16.0078 h -80"
         style="fill:#ffffff;fill-opacity:1;fill-rule:nonzero;stroke:none"
         id="path62" />
      <path
         d="m 1709.01,532.035 h 80.01 V 16.0078 h -76.01 v 77 C 1673.68,33.6719 1619.67,4.00391 1551.01,4.00391 1493.67,4.00391 1449,19.668 1417,51.0078 1385,82.3438 1368.99,126.348 1368.99,183.02 V 532.035 H 1449 V 191.016 c 0,-76.668 39.33,-115.0082 118.01,-115.0082 37.33,0 70.33,14.0039 99,42.0002 28.67,28.008 43,68.672 43,122.012 v 292.015"
         style="fill:#ffffff;fill-opacity:1;fill-rule:nonzero;stroke:none"
         id="path64" />
      <path
         d="M 2135,462.031 H 2028.99 V 127.012 c 0,-29.3362 19.67,-44.0042 59.01,-44.0042 h 47 v -67 c -22,-2.0039 -41,-3 -57,-3 -86.01,0 -129.01,35.6641 -129.01,107.0042 v 342.019 h -85.01 v 70.004 h 85.01 v 146.012 h 80 V 532.035 H 2135 v -70.004"
         style="fill:#ffffff;fill-opacity:1;fill-rule:nonzero;stroke:none"
         id="path66" />
      <path
         d="M 2174.98,16.0078 2429.99,728.051 H 2508 L 2252.98,16.0078 h -78"
         style="fill:#ffffff;fill-opacity:1;fill-rule:nonzero;stroke:none"
         id="path68" />
      <path
         d="M 3090.79,15.9492 H 2793.24 V 234.234 h -207.23 v 39.813 h 248.56 l 40.95,39.605 h -289.51 v 39.606 h 330.46 l 40.49,39.176 h -370.95 v 39.613 h 411.89 l 40.96,39.605 h -452.85 v 39.231 h 207.23 v 217.109 h 297.55 V 510.883 h 207.25 V 234.234 H 3090.79 V 15.9492"
         style="fill:#ffffff;fill-opacity:1;fill-rule:nonzero;stroke:none"
         id="path70" />
    </g>
  </g>
</svg>
